<?xml version="1.0" encoding="UTF-8"?>
<svg viewBox="0 0 1004 402" xmlns="http://www.w3.org/2000/svg" xmlns:xlink="http://www.w3.org/1999/xlink" version="1.1">
 <path id="Path" d="M981 315.9 L981 310 981 315.9 981 401.7 987.1 401.7 987.1 -394.3 22 -394.3 22 401.7 981 401.7 Z" fill="none" stroke="none"/>
 <path id="Path-1" d="M981 399.5 L742.7 401.7 981 401.7 Z" fill="#1a1a1a" fill-opacity="1" stroke="none"/>
 <path id="Path-2" d="M981 337.1 L761.7 356.1 22 363.6 22 401.7 981 401.7 Z" fill="#2d1e17" fill-opacity="1" stroke="none"/>
 <path id="Path-3" d="M981 315.9 L981 310 981 315.9 981 401.7 987.1 401.7 987.1 -394.3 22 -394.3 22 401.7 981 401.7 Z" fill="none" stroke="none"/>
 <path id="Path-4" d="M981 315.9 L981 310 981 315.9 981 401.7 987.1 401.7 987.1 -394.3 22 -394.3 22 401.7 981 401.7 Z" fill="none" stroke="none"/>
 <path id="Path-5" d="M981 392.4 L981 387.4 22 399.7 22 401.7 254.3 401.7 Z" fill="#483e37" fill-opacity="1" stroke="none"/>
 <path id="Path-6" d="M981 315.9 L981 310 981 315.9 981 401.7 987.1 401.7 987.1 -394.3 22 -394.3 22 401.7 981 401.7 Z" fill="none" stroke="none"/>
 <path id="Path-7" d="M22 381.7 L22 386.7 981 369.7 981 364.7 Z" fill="#483e37" fill-opacity="1" stroke="none"/>
 <path id="Path-8" d="M981 315.9 L981 310 981 315.9 981 401.7 987.1 401.7 987.1 -394.3 22 -394.3 22 401.7 981 401.7 Z" fill="none" stroke="none"/>
 <path id="Path-9" d="M981 315.9 L981 310 981 315.9 981 401.7 987.1 401.7 987.1 -394.3 22 -394.3 22 401.7 981 401.7 Z" fill="none" stroke="none"/>
 <path id="Path-10" d="M52.816 363.516 L57.81 363.273 58.783 383.249 53.789 383.492 Z" fill="#483e37" fill-opacity="1" stroke="none"/>
 <path id="Path-11" d="M981 315.9 L981 310 981 315.9 981 401.7 987.1 401.7 987.1 -394.3 22 -394.3 22 401.7 981 401.7 Z" fill="none" stroke="none"/>
 <path id="Path-12" d="M40.2 401.7 L38.2 401.7 40.2 401.8 Z" fill="#483e37" fill-opacity="1" stroke="none"/>
 <path id="Path-13" d="M40.7 384.4 L35.7 384.3 35.2 401.6 38.2 401.7 40.2 401.7 Z" fill="#483e37" fill-opacity="1" stroke="none"/>
 <path id="Path-14" d="M981 315.9 L981 310 981 315.9 981 401.7 987.1 401.7 987.1 -394.3 22 -394.3 22 401.7 981 401.7 Z" fill="none" stroke="none"/>
 <path id="Path-15" d="M981 315.9 L981 310 981 315.9 981 401.7 987.1 401.7 987.1 -394.3 22 -394.3 22 401.7 981 401.7 Z" fill="none" stroke="none"/>
 <path id="Path-16" d="M981 315.9 L981 310 981 315.9 981 401.7 987.1 401.7 987.1 -394.3 22 -394.3 22 401.7 981 401.7 Z" fill="none" stroke="none"/>
 <path id="Path-17" d="M72.997 383.663 L77.984 383.313 79.205 400.669 74.217 401.02 Z" fill="#483e37" fill-opacity="1" stroke="none"/>
 <path id="Path-18" d="M981 315.9 L981 310 981 315.9 981 401.7 987.1 401.7 987.1 -394.3 22 -394.3 22 401.7 981 401.7 Z" fill="none" stroke="none"/>
 <path id="Path-19" d="M111.293 382.768 L116.29 382.598 116.901 400.587 111.904 400.757 Z" fill="#483e37" fill-opacity="1" stroke="none"/>
 <path id="Path-20" d="M981 315.9 L981 310 981 315.9 981 401.7 987.1 401.7 987.1 -394.3 22 -394.3 22 401.7 981 401.7 Z" fill="none" stroke="none"/>
 <path id="Path-21" d="M153.334 382.372 L158.329 382.165 159.058 399.749 154.063 399.956 Z" fill="#483e37" fill-opacity="1" stroke="none"/>
 <path id="Path-22" d="M981 315.9 L981 310 981 315.9 981 401.7 987.1 401.7 987.1 -394.3 22 -394.3 22 401.7 981 401.7 Z" fill="none" stroke="none"/>
 <path id="Path-23" d="M192.8 381.3 L197.8 381.3 197.8 399.9 192.8 399.9 Z" fill="#483e37" fill-opacity="1" stroke="none"/>
 <path id="Path-24" d="M981 315.9 L981 310 981 315.9 981 401.7 987.1 401.7 987.1 -394.3 22 -394.3 22 401.7 981 401.7 Z" fill="none" stroke="none"/>
 <path id="Path-25" d="M236.7 380.8 L241.7 380.8 241.7 399.1 236.7 399.1 Z" fill="#483e37" fill-opacity="1" stroke="none"/>
 <path id="Path-26" d="M981 315.9 L981 310 981 315.9 981 401.7 987.1 401.7 987.1 -394.3 22 -394.3 22 401.7 981 401.7 Z" fill="none" stroke="none"/>
 <path id="Path-27" d="M275.875 379.314 L280.874 379.251 281.115 398.349 276.115 398.412 Z" fill="#483e37" fill-opacity="1" stroke="none"/>
 <path id="Path-28" d="M981 315.9 L981 310 981 315.9 981 401.7 987.1 401.7 987.1 -394.3 22 -394.3 22 401.7 981 401.7 Z" fill="none" stroke="none"/>
 <path id="Path-29" d="M91.408 382.976 L91.896 363.182 96.894 363.305 96.407 383.099 Z" fill="#483e37" fill-opacity="1" stroke="none"/>
 <path id="Path-30" d="M981 315.9 L981 310 981 315.9 981 401.7 987.1 401.7 987.1 -394.3 22 -394.3 22 401.7 981 401.7 Z" fill="none" stroke="none"/>
 <path id="Path-31" d="M96.6 400.8 L91.6 400.9 91.7 401.7 96.7 401.7 Z" fill="#483e37" fill-opacity="1" stroke="none"/>
 <path id="Path-32" d="M981 315.9 L981 310 981 315.9 981 401.7 987.1 401.7 987.1 -394.3 22 -394.3 22 401.7 981 401.7 Z" fill="none" stroke="none"/>
 <path id="Path-33" d="M139 400.7 L134.1 400.5 134 401.7 139 401.7 Z" fill="#483e37" fill-opacity="1" stroke="none"/>
 <path id="Path-34" d="M981 315.9 L981 310 981 315.9 981 401.7 987.1 401.7 987.1 -394.3 22 -394.3 22 401.7 981 401.7 Z" fill="none" stroke="none"/>
 <path id="Path-35" d="M133.077 382.436 L133.316 363.338 138.315 363.4 138.077 382.498 Z" fill="#483e37" fill-opacity="1" stroke="none"/>
 <path id="Path-36" d="M981 315.9 L981 310 981 315.9 981 401.7 987.1 401.7 987.1 -394.3 22 -394.3 22 401.7 981 401.7 Z" fill="none" stroke="none"/>
 <path id="Path-37" d="M173.492 362.861 L178.481 362.524 179.698 380.583 174.71 380.919 Z" fill="#483e37" fill-opacity="1" stroke="none"/>
 <path id="Path-38" d="M981 315.9 L981 310 981 315.9 981 401.7 987.1 401.7 987.1 -394.3 22 -394.3 22 401.7 981 401.7 Z" fill="none" stroke="none"/>
 <path id="Path-39" d="M180.5 400.1 L175.5 400.1 175.5 401.7 180.5 401.7 Z" fill="#483e37" fill-opacity="1" stroke="none"/>
 <path id="Path-40" d="M981 315.9 L981 310 981 315.9 981 401.7 987.1 401.7 987.1 -394.3 22 -394.3 22 401.7 981 401.7 Z" fill="none" stroke="none"/>
 <path id="Path-41" d="M220.4 400.6 L215.5 400.1 215.3 401.7 220.3 401.7 Z" fill="#483e37" fill-opacity="1" stroke="none"/>
 <path id="Path-42" d="M981 315.9 L981 310 981 315.9 981 401.7 987.1 401.7 987.1 -394.3 22 -394.3 22 401.7 981 401.7 Z" fill="none" stroke="none"/>
 <path id="Path-43" d="M214.496 380.204 L216.936 362.571 221.889 363.257 219.449 380.89 Z" fill="#483e37" fill-opacity="1" stroke="none"/>
 <path id="Path-44" d="M981 315.9 L981 310 981 315.9 981 401.7 987.1 401.7 987.1 -394.3 22 -394.3 22 401.7 981 401.7 Z" fill="none" stroke="none"/>
 <path id="Path-45" d="M258.866 380.331 L260.329 360.786 265.315 361.159 263.852 380.704 Z" fill="#483e37" fill-opacity="1" stroke="none"/>
 <path id="Path-46" d="M261.1 398.8 L256.2 399 256.2 401.7 261.2 401.7 Z" fill="#483e37" fill-opacity="1" stroke="none"/>
 <path id="Path-47" d="M304.53 361.497 L309.509 361.038 311.09 378.165 306.111 378.625 Z" fill="#483e37" fill-opacity="1" stroke="none"/>
 <path id="Path-48" d="M312.1 398.1 L307.1 398.2 307.1 401.7 312.1 401.7 Z" fill="#483e37" fill-opacity="1" stroke="none"/>
 <path id="Path-49" d="M329.068 379.202 L334.067 379.072 334.556 397.866 329.558 397.996 Z" fill="#483e37" fill-opacity="1" stroke="none"/>
 <path id="Path-50" d="M376.6 378.6 L381.6 378.6 381.6 396.9 376.6 396.9 Z" fill="#483e37" fill-opacity="1" stroke="none"/>
 <path id="Path-51" d="M414.5 376.9 L419.5 376.9 419.5 396.6 414.5 396.6 Z" fill="#483e37" fill-opacity="1" stroke="none"/>
 <path id="Path-52" d="M447.911 376.905 L452.91 376.817 453.251 396.213 448.252 396.301 Z" fill="#483e37" fill-opacity="1" stroke="none"/>
 <path id="Path-53" d="M482.1 376.5 L487.1 376.5 487.1 395.2 482.1 395.2 Z" fill="#483e37" fill-opacity="1" stroke="none"/>
 <path id="Path-54" d="M525.854 375.887 L530.854 375.801 531.194 395.499 526.194 395.585 Z" fill="#483e37" fill-opacity="1" stroke="none"/>
 <path id="Path-55" d="M565.105 374.265 L570.099 374.017 571.131 394.792 566.137 395.04 Z" fill="#483e37" fill-opacity="1" stroke="none"/>
 <path id="Path-56" d="M609.6 373.8 L614.6 373.8 614.6 393.9 609.6 393.9 Z" fill="#483e37" fill-opacity="1" stroke="none"/>
 <path id="Path-57" d="M653.7 372.7 L658.7 372.7 658.7 393.5 653.7 393.5 Z" fill="#483e37" fill-opacity="1" stroke="none"/>
 <path id="Path-58" d="M695.156 372.322 L700.154 372.144 700.886 392.732 695.889 392.91 Z" fill="#483e37" fill-opacity="1" stroke="none"/>
 <path id="Path-59" d="M738.708 372.181 L743.7 371.888 744.918 392.653 739.926 392.946 Z" fill="#483e37" fill-opacity="1" stroke="none"/>
 <path id="Path-60" d="M790.139 370.841 L795.138 370.724 795.627 391.517 790.628 391.635 Z" fill="#483e37" fill-opacity="1" stroke="none"/>
 <path id="Path-61" d="M832.304 369.556 L837.301 369.388 838.031 391.175 833.034 391.343 Z" fill="#483e37" fill-opacity="1" stroke="none"/>
 <path id="Path-62" d="M888.126 369.329 L893.124 369.214 893.615 390.508 888.616 390.623 Z" fill="#483e37" fill-opacity="1" stroke="none"/>
 <path id="Path-63" d="M936.1 368.1 L941.1 368.1 941.1 389.9 936.1 389.9 Z" fill="#483e37" fill-opacity="1" stroke="none"/>
 <path id="Path-64" d="M964.414 338.752 L969.414 338.71 969.654 367.11 964.654 367.152 Z" fill="#483e37" fill-opacity="1" stroke="none"/>
 <path id="Path-65" d="M969.2 390.2 L964.2 390 963.7 401.7 968.7 401.7 Z" fill="#483e37" fill-opacity="1" stroke="none"/>
 <path id="Path-66" d="M913 342.9 L918 342.9 918 368.1 913 368.1 Z" fill="#483e37" fill-opacity="1" stroke="none"/>
 <path id="Path-67" d="M919 390.4 L914 390.7 914.5 401.7 919.6 401.7 Z" fill="#483e37" fill-opacity="1" stroke="none"/>
 <path id="Path-68" d="M868 391.2 L863 391.4 863.4 401.7 868.4 401.7 Z" fill="#483e37" fill-opacity="1" stroke="none"/>
 <path id="Path-69" d="M764.056 370.94 L764.544 356.248 769.541 356.414 769.053 371.105 Z" fill="#483e37" fill-opacity="1" stroke="none"/>
 <path id="Path-70" d="M716.3 392.8 L721.3 392.8 721.3 401.7 716.3 401.7 Z" fill="#483e37" fill-opacity="1" stroke="none"/>
 <path id="Path-71" d="M630.824 373.147 L631.313 358.254 636.31 358.419 635.822 373.311 Z" fill="#483e37" fill-opacity="1" stroke="none"/>
 <path id="Path-72" d="M636.2 394.6 L631.2 394.4 630.9 401.7 635.9 401.7 Z" fill="#483e37" fill-opacity="1" stroke="none"/>
 <path id="Path-73" d="M587.153 374.193 L587.394 358.794 592.393 358.873 592.153 374.271 Z" fill="#483e37" fill-opacity="1" stroke="none"/>
 <path id="Path-74" d="M503.99 375.336 L504.228 359.238 509.228 359.312 508.989 375.41 Z" fill="#483e37" fill-opacity="1" stroke="none"/>
 <path id="Path-75" d="M352.13 360.8 L357.126 360.59 357.857 377.974 352.861 378.184 Z" fill="#483e37" fill-opacity="1" stroke="none"/>
 <path id="Path-76" d="M22 360.5 L22 365.4 760.1 358.8 981 339.4 981 334.6 759.9 353.9 Z" fill="#c8b7b7" fill-opacity="1" stroke="none"/>
</svg>
