<?xml version="1.0" encoding="UTF-8"?>
<svg viewBox="0 0 1004 402" xmlns="http://www.w3.org/2000/svg" xmlns:xlink="http://www.w3.org/1999/xlink" version="1.1">
 <g id="mountains_3">
  <path id="mountains_3_background" d="M2 211.459 C2 211.459 44.752 172.49 70.268 171.786 95.785 171.092 137.156 175.268 193.001 148.121 248.856 120.975 281.955 72.266 327.458 70.867 372.97 69.479 671.54 276.176 671.54 276.176 L1004 401.847 281 401.847 C281 401.847 0.31 403.023 1 398.847 1.68 394.682 2 211.459 2 211.459 Z" fill="#536c5d" fill-opacity="1" stroke="none"/>
  <path id="mountains_3_foreground" d="M55.57 272.017 C55.57 272.017 149.32 207.687 203.09 168.957 256.86 130.227 300.98 64.517 334.76 71.427 368.54 78.347 459.53 141.287 492.62 145.437 525.71 149.587 524.33 141.977 596.02 182.787 667.71 223.597 1003 401.847 1003 401.847 L441 401.847 2 401.847 2 306.847 55.57 272.017 Z" fill="#37483e" fill-opacity="1" stroke="none"/>
 </g>
</svg>
